<svg xmlns="http://www.w3.org/2000/svg" xmlns:xlink="http://www.w3.org/1999/xlink" width="1024" zoomAndPan="magnify" viewBox="0 0 768 767.999994" height="1024" preserveAspectRatio="xMidYMid meet" version="1.0"><defs><clipPath id="f8bb343f82"><path d="M 1 76.800781 L 767 76.800781 L 767 721.800781 L 1 721.800781 Z M 1 76.800781 " clip-rule="nonzero"/></clipPath></defs><g clip-path="url(#f8bb343f82)"><path fill="#000000" d="M 762.125 242.613281 L 609.75 81.433594 C 606.929688 78.449219 603.003906 76.761719 598.898438 76.761719 L 169.101562 76.761719 C 164.996094 76.761719 161.070312 78.449219 158.25 81.433594 L 5.875 242.613281 C 0.738281 248.046875 0.414062 256.445312 5.117188 262.257812 L 372.390625 716.152344 C 375.226562 719.65625 379.492188 721.6875 384 721.6875 C 388.503906 721.6875 392.769531 719.65625 395.605469 716.152344 L 762.878906 262.257812 C 767.585938 256.441406 767.261719 248.046875 762.125 242.613281 Z M 164.265625 118.53125 L 214.902344 237.941406 L 51.382812 237.941406 Z M 509.945312 267.796875 L 384 651.769531 L 258.054688 267.796875 Z M 271.535156 237.941406 L 384 116.050781 L 496.464844 237.941406 Z M 415.917969 106.617188 L 576.355469 106.617188 L 525.835938 225.742188 Z M 242.164062 225.742188 L 191.648438 106.617188 L 352.082031 106.617188 Z M 226.628906 267.796875 L 348.394531 639.027344 L 48.007812 267.796875 Z M 541.367188 267.796875 L 719.992188 267.796875 L 419.605469 639.027344 Z M 553.097656 237.941406 L 603.734375 118.53125 L 716.617188 237.941406 Z M 553.097656 237.941406 " fill-opacity="1" fill-rule="nonzero"/></g></svg>