<svg xmlns="http://www.w3.org/2000/svg" xmlns:xlink="http://www.w3.org/1999/xlink" width="1024" zoomAndPan="magnify" viewBox="0 0 768 767.999994" height="1024" preserveAspectRatio="xMidYMid meet" version="1.0"><defs><clipPath id="f0c0c1cb73"><path d="M 617 375 L 649.289062 375 L 649.289062 415 L 617 415 Z M 617 375 " clip-rule="nonzero"/></clipPath></defs><path fill="#231f20" d="M 555.070312 385.839844 C 555.40625 371.929688 554.136719 356.160156 550.273438 339.234375 C 548.195312 330.820312 545.652344 322.070312 542.121094 313.265625 C 538.582031 304.472656 534.292969 295.5625 529.09375 286.730469 C 518.613281 269.144531 504.433594 251.933594 486.394531 237.101562 C 468.394531 222.289062 446.464844 209.929688 421.664062 202.363281 C 396.902344 194.765625 369.367188 192.042969 341.445312 195.570312 C 327.496094 197.347656 313.441406 200.613281 299.773438 205.675781 C 286.101562 210.730469 272.789062 217.425781 260.230469 225.671875 C 247.679688 233.933594 236.011719 243.898438 225.449219 255.15625 C 214.890625 266.425781 205.710938 279.226562 197.972656 293.015625 C 190.300781 306.855469 184.363281 321.84375 180.207031 337.453125 C 176.203125 353.109375 174.125 369.410156 174.046875 385.839844 C 174.125 402.273438 176.203125 418.570312 180.207031 434.226562 C 184.363281 449.839844 190.300781 464.824219 197.972656 478.664062 C 205.710938 492.453125 214.890625 505.253906 225.449219 516.523438 C 236.011719 527.777344 247.683594 537.738281 260.230469 546.007812 C 272.789062 554.261719 286.101562 560.949219 299.773438 566.003906 C 313.441406 571.070312 327.496094 574.332031 341.445312 576.113281 C 369.367188 579.628906 396.902344 576.910156 421.664062 569.316406 C 446.464844 561.742188 468.394531 549.394531 486.394531 534.578125 C 504.433594 519.746094 518.613281 502.535156 529.09375 484.949219 C 534.292969 476.117188 538.589844 467.207031 542.121094 458.414062 C 545.652344 449.609375 548.191406 440.867188 550.273438 432.449219 C 554.136719 415.523438 555.410156 399.75 555.070312 385.839844 L 546.878906 385.839844 C 546.511719 399.160156 544.625 414.085938 540.367188 429.9375 C 538.09375 437.816406 535.410156 445.96875 531.816406 454.136719 C 528.210938 462.292969 523.921875 470.523438 518.816406 478.652344 C 508.527344 494.835938 494.878906 510.53125 477.824219 523.929688 C 460.800781 537.316406 440.308594 548.316406 417.367188 554.902344 C 394.46875 561.515625 369.117188 563.632812 343.570312 560.105469 C 330.816406 558.320312 318.003906 555.203125 305.574219 550.445312 C 293.144531 545.707031 281.054688 539.488281 269.660156 531.886719 C 258.273438 524.261719 247.707031 515.101562 238.144531 504.796875 C 228.582031 494.484375 220.296875 482.785156 213.304688 470.230469 C 206.378906 457.621094 201.035156 443.996094 197.28125 429.820312 C 193.675781 415.597656 191.808594 400.800781 191.730469 385.84375 C 191.808594 370.890625 193.683594 356.09375 197.28125 341.871094 C 201.035156 327.691406 206.378906 314.0625 213.304688 301.460938 C 220.296875 288.90625 228.582031 277.207031 238.144531 266.894531 C 247.707031 256.59375 258.273438 247.429688 269.660156 239.804688 C 281.054688 232.195312 293.144531 225.984375 305.574219 221.246094 C 318.003906 216.488281 330.816406 213.371094 343.570312 211.585938 C 369.117188 208.050781 394.46875 210.175781 417.367188 216.789062 C 440.316406 223.375 460.808594 234.375 477.824219 247.761719 C 494.878906 261.160156 508.523438 276.855469 518.816406 293.039062 C 523.921875 301.160156 528.210938 309.398438 531.816406 317.554688 C 535.410156 325.722656 538.097656 333.875 540.367188 341.753906 C 544.625 357.605469 546.503906 372.53125 546.878906 385.851562 L 555.070312 385.851562 Z M 555.070312 385.839844 " fill-opacity="1" fill-rule="nonzero"/><path fill="#231f20" d="M 603.546875 385.839844 C 603.878906 368.34375 602.191406 348.527344 597.265625 327.289062 C 594.617188 316.730469 591.378906 305.757812 586.917969 294.722656 C 582.441406 283.699219 577.019531 272.53125 570.457031 261.46875 C 557.246094 239.433594 539.398438 217.886719 516.734375 199.335938 C 494.121094 180.804688 466.605469 165.375 435.515625 155.949219 C 404.484375 146.480469 369.980469 143.117188 335.015625 147.566406 C 317.554688 149.8125 299.957031 153.921875 282.851562 160.28125 C 265.746094 166.625 249.085938 175.015625 233.375 185.355469 C 217.667969 195.707031 203.070312 208.191406 189.859375 222.289062 C 176.648438 236.394531 165.171875 252.425781 155.492188 269.6875 C 145.894531 287.003906 138.476562 305.761719 133.273438 325.296875 C 128.269531 344.886719 125.671875 365.28125 125.574219 385.84375 C 125.671875 406.410156 128.269531 426.804688 133.273438 446.390625 C 138.476562 465.925781 145.894531 484.679688 155.492188 502.003906 C 165.171875 519.265625 176.648438 535.292969 189.859375 549.402344 C 203.070312 563.492188 217.671875 575.976562 233.375 586.335938 C 249.085938 596.675781 265.746094 605.066406 282.851562 611.410156 C 299.957031 617.773438 317.554688 621.875 335.015625 624.125 C 369.980469 628.574219 404.480469 625.210938 435.515625 615.742188 C 466.597656 606.308594 494.121094 590.882812 516.734375 572.351562 C 539.390625 553.804688 557.246094 532.257812 570.457031 510.222656 C 577.011719 499.160156 582.4375 487.992188 586.917969 476.96875 C 591.386719 465.933594 594.617188 454.960938 597.265625 444.402344 C 602.191406 423.152344 603.878906 403.335938 603.546875 385.839844 L 595.359375 385.839844 C 594.984375 402.746094 592.6875 421.714844 587.355469 441.882812 C 584.511719 451.90625 581.136719 462.28125 576.601562 472.6875 C 572.058594 483.074219 566.640625 493.570312 560.175781 503.921875 C 547.148438 524.554688 529.839844 544.582031 508.164062 561.699219 C 486.535156 578.800781 460.449219 592.878906 431.222656 601.324219 C 402.046875 609.804688 369.730469 612.566406 337.144531 608.105469 C 320.875 605.851562 304.527344 601.894531 288.652344 595.84375 C 272.785156 589.816406 257.351562 581.898438 242.800781 572.203125 C 228.261719 562.488281 214.765625 550.808594 202.554688 537.667969 C 190.339844 524.507812 179.757812 509.585938 170.824219 493.558594 C 161.976562 477.464844 155.144531 460.074219 150.347656 441.976562 C 145.746094 423.820312 143.351562 404.925781 143.257812 385.839844 C 143.355469 366.753906 145.75 347.859375 150.347656 329.703125 C 155.144531 311.605469 161.976562 294.207031 170.824219 278.121094 C 179.757812 262.09375 190.339844 247.171875 202.554688 234.011719 C 214.765625 220.875 228.261719 209.195312 242.800781 199.476562 C 257.351562 189.78125 272.785156 181.867188 288.652344 175.835938 C 304.519531 169.792969 320.875 165.832031 337.144531 163.574219 C 369.730469 159.113281 402.050781 161.875 431.222656 170.355469 C 460.457031 178.800781 486.535156 192.882812 508.164062 209.980469 C 529.839844 227.097656 547.148438 247.128906 560.175781 267.757812 C 566.636719 278.113281 572.058594 288.605469 576.601562 298.992188 C 581.136719 309.390625 584.507812 319.773438 587.355469 329.796875 C 592.679688 349.964844 594.984375 368.933594 595.359375 385.839844 Z M 603.546875 385.839844 " fill-opacity="1" fill-rule="nonzero"/><path fill="#231f20" d="M 598.199219 424.691406 C 600.222656 425.394531 602.761719 426.046875 605.714844 426.621094 C 606.449219 426.753906 607.214844 426.894531 608.007812 427.039062 L 608.601562 427.140625 L 608.910156 427.191406 L 609.441406 427.238281 C 610.164062 427.300781 610.894531 427.367188 611.644531 427.429688 C 613.152344 427.507812 614.652344 427.46875 616.109375 427.035156 C 617.574219 426.605469 619.027344 425.863281 620.273438 424.8125 C 622.800781 422.746094 624.695312 419.613281 625.507812 415.914062 C 625.714844 414.988281 625.84375 414.035156 625.921875 413.0625 C 625.960938 412.347656 626.003906 411.621094 626.042969 410.898438 C 626.105469 409.859375 626.167969 408.804688 626.234375 407.742188 C 626.457031 403.46875 626.578125 398.953125 626.578125 394.289062 C 626.578125 389.621094 626.457031 385.105469 626.234375 380.832031 C 626.171875 379.761719 626.109375 378.714844 626.042969 377.675781 C 626.003906 376.953125 625.960938 376.226562 625.921875 375.515625 C 625.84375 374.539062 625.714844 373.585938 625.507812 372.660156 C 624.695312 368.960938 622.800781 365.824219 620.273438 363.761719 C 619.027344 362.710938 617.574219 361.96875 616.109375 361.539062 C 614.652344 361.105469 613.152344 361.066406 611.644531 361.144531 C 610.902344 361.210938 610.164062 361.273438 609.441406 361.335938 L 608.910156 361.386719 L 608.601562 361.433594 L 608.007812 361.535156 C 607.21875 361.679688 606.457031 361.820312 605.714844 361.953125 C 602.761719 362.527344 600.230469 363.179688 598.199219 363.882812 L 598.199219 372.066406 C 600.222656 372.769531 602.761719 373.421875 605.714844 373.996094 C 606.449219 374.132812 607.214844 374.269531 608.007812 374.414062 L 608.898438 374.566406 L 608.972656 374.617188 L 609.246094 374.804688 C 609.578125 375.027344 609.8125 375.308594 609.851562 375.707031 C 609.890625 376.082031 609.78125 376.410156 609.648438 376.617188 C 609.613281 376.667969 609.574219 376.71875 609.539062 376.757812 C 609.523438 376.820312 609.5 376.707031 609.484375 376.902344 L 609.429688 377.675781 C 609.367188 378.714844 609.304688 379.769531 609.238281 380.832031 C 609.015625 385.105469 608.894531 389.621094 608.894531 394.289062 C 608.894531 398.953125 609.015625 403.46875 609.238281 407.742188 C 609.300781 408.8125 609.367188 409.859375 609.429688 410.898438 L 609.484375 411.671875 C 609.496094 411.867188 609.523438 411.757812 609.539062 411.816406 C 609.578125 411.855469 609.613281 411.902344 609.648438 411.957031 C 609.785156 412.164062 609.898438 412.492188 609.851562 412.867188 C 609.820312 413.265625 609.578125 413.546875 609.246094 413.769531 L 608.972656 413.957031 L 608.898438 414.007812 L 608.007812 414.160156 C 607.21875 414.304688 606.457031 414.445312 605.714844 414.578125 C 602.761719 415.152344 600.230469 415.804688 598.199219 416.507812 Z M 598.199219 424.691406 " fill-opacity="1" fill-rule="nonzero"/><path fill="#231f20" d="M 571.796875 535.585938 C 569.726562 535.585938 567.742188 534.953125 566.050781 533.753906 L 556.90625 527.25 C 552.449219 524.078125 551.40625 517.875 554.574219 513.421875 L 559.578125 506.394531 C 561.4375 503.78125 564.460938 502.222656 567.667969 502.222656 C 569.738281 502.222656 571.722656 502.859375 573.414062 504.054688 L 582.566406 510.5625 C 584.722656 512.097656 586.15625 514.382812 586.597656 516.996094 C 587.039062 519.605469 586.4375 522.238281 584.898438 524.398438 L 579.890625 531.425781 C 578.027344 534.03125 575.003906 535.585938 571.796875 535.585938 Z M 562.898438 519.128906 L 571.757812 525.429688 L 576.554688 518.679688 L 567.695312 512.382812 Z M 562.898438 519.128906 " fill-opacity="1" fill-rule="nonzero"/><path fill="#231f20" d="M 576.074219 561.0625 C 574.007812 561.0625 572.019531 560.425781 570.328125 559.226562 L 563.390625 554.289062 C 561.230469 552.753906 559.800781 550.46875 559.355469 547.855469 C 558.914062 545.246094 559.515625 542.613281 561.058594 540.453125 L 586.363281 504.902344 C 588.222656 502.292969 591.25 500.734375 594.453125 500.734375 C 596.523438 500.734375 598.511719 501.367188 600.199219 502.566406 L 607.140625 507.503906 C 609.300781 509.035156 610.734375 511.320312 611.175781 513.9375 C 611.617188 516.546875 611.011719 519.179688 609.472656 521.335938 L 584.160156 556.886719 C 582.308594 559.507812 579.285156 561.0625 576.074219 561.0625 Z M 569.386719 546.167969 L 576.042969 550.902344 L 601.148438 515.636719 L 594.492188 510.910156 Z M 569.386719 546.167969 " fill-opacity="1" fill-rule="nonzero"/><path fill="#231f20" d="M 567.664062 270.121094 C 564.453125 270.121094 561.429688 268.566406 559.574219 265.949219 L 554.566406 258.917969 C 551.398438 254.464844 552.441406 248.265625 556.898438 245.09375 L 566.042969 238.585938 C 567.734375 237.386719 569.722656 236.75 571.792969 236.75 C 575 236.75 578.023438 238.304688 579.882812 240.921875 L 584.886719 247.945312 C 586.421875 250.105469 587.027344 252.738281 586.585938 255.347656 C 586.148438 257.957031 584.710938 260.242188 582.554688 261.78125 L 573.402344 268.28125 C 571.71875 269.484375 569.730469 270.121094 567.664062 270.121094 Z M 562.898438 253.214844 L 567.695312 259.957031 L 576.554688 253.65625 L 571.757812 246.914062 Z M 562.898438 253.214844 " fill-opacity="1" fill-rule="nonzero"/><path fill="#231f20" d="M 594.453125 271.597656 C 591.25 271.597656 588.226562 270.042969 586.371094 267.433594 L 561.054688 231.882812 C 557.886719 227.429688 558.929688 221.226562 563.390625 218.054688 L 570.328125 213.121094 C 572.019531 211.921875 574.007812 211.285156 576.074219 211.285156 C 579.285156 211.285156 582.308594 212.84375 584.167969 215.457031 L 609.480469 251.007812 C 612.648438 255.460938 611.605469 261.667969 607.148438 264.835938 L 600.207031 269.769531 C 598.515625 270.964844 596.523438 271.597656 594.453125 271.597656 Z M 569.386719 226.171875 L 594.492188 261.441406 L 601.148438 256.707031 L 576.042969 221.441406 Z M 569.386719 226.171875 " fill-opacity="1" fill-rule="nonzero"/><path fill="#231f20" d="M 160.078125 535.585938 C 156.871094 535.585938 153.847656 534.027344 151.988281 531.417969 L 146.984375 524.386719 C 145.449219 522.226562 144.839844 519.601562 145.28125 516.988281 C 145.722656 514.378906 147.15625 512.089844 149.316406 510.550781 L 158.460938 504.046875 C 160.152344 502.839844 162.136719 502.210938 164.207031 502.210938 C 167.414062 502.210938 170.4375 503.773438 172.296875 506.382812 L 177.300781 513.414062 C 180.46875 517.867188 179.425781 524.066406 174.96875 527.238281 L 165.820312 533.746094 C 164.140625 534.953125 162.148438 535.585938 160.078125 535.585938 Z M 155.3125 518.679688 L 160.113281 525.429688 L 168.972656 519.128906 L 164.171875 512.382812 Z M 155.3125 518.679688 " fill-opacity="1" fill-rule="nonzero"/><path fill="#231f20" d="M 155.796875 561.0625 C 152.597656 561.0625 149.566406 559.507812 147.707031 556.898438 L 122.394531 521.347656 C 120.859375 519.1875 120.253906 516.5625 120.695312 513.949219 C 121.132812 511.339844 122.570312 509.050781 124.726562 507.511719 L 131.667969 502.578125 C 133.359375 501.375 135.34375 500.746094 137.414062 500.746094 C 140.621094 500.746094 143.648438 502.304688 145.503906 504.914062 L 170.816406 540.464844 C 172.351562 542.625 172.960938 545.25 172.515625 547.859375 C 172.074219 550.46875 170.644531 552.753906 168.480469 554.292969 L 161.539062 559.234375 C 159.855469 560.433594 157.867188 561.0625 155.796875 561.0625 Z M 130.726562 515.636719 L 155.832031 550.902344 L 162.488281 546.167969 L 137.382812 510.902344 Z M 130.726562 515.636719 " fill-opacity="1" fill-rule="nonzero"/><path fill="#231f20" d="M 164.210938 270.121094 C 162.136719 270.121094 160.152344 269.484375 158.460938 268.28125 L 149.316406 261.78125 C 147.15625 260.246094 145.722656 257.960938 145.28125 255.347656 C 144.839844 252.738281 145.445312 250.105469 146.984375 247.945312 L 151.988281 240.914062 C 153.847656 238.304688 156.871094 236.746094 160.078125 236.746094 C 162.148438 236.746094 164.140625 237.382812 165.832031 238.585938 L 174.976562 245.085938 C 179.433594 248.257812 180.480469 254.460938 177.308594 258.914062 L 172.300781 265.945312 C 170.445312 268.566406 167.421875 270.121094 164.210938 270.121094 Z M 155.3125 253.660156 L 164.171875 259.960938 L 168.972656 253.222656 L 160.113281 246.921875 Z M 155.3125 253.660156 " fill-opacity="1" fill-rule="nonzero"/><path fill="#231f20" d="M 137.421875 271.597656 C 135.34375 271.597656 133.359375 270.964844 131.667969 269.757812 L 124.726562 264.824219 C 120.269531 261.652344 119.222656 255.453125 122.394531 250.996094 L 147.703125 215.445312 C 149.5625 212.835938 152.589844 211.273438 155.792969 211.273438 C 157.863281 211.273438 159.847656 211.910156 161.539062 213.109375 L 168.480469 218.042969 C 172.9375 221.214844 173.988281 227.417969 170.8125 231.871094 L 145.5 267.421875 C 143.652344 270.042969 140.628906 271.597656 137.421875 271.597656 Z M 130.730469 256.707031 L 137.386719 261.441406 L 162.492188 226.171875 L 155.835938 221.441406 Z M 130.730469 256.707031 " fill-opacity="1" fill-rule="nonzero"/><g clip-path="url(#f0c0c1cb73)"><path fill="#231f20" d="M 617.730469 411.070312 C 620.765625 412.480469 625.3125 413.664062 630.855469 414.5 L 631.378906 414.578125 L 632.316406 414.648438 C 632.984375 414.695312 633.660156 414.746094 634.347656 414.792969 C 635.730469 414.910156 637.125 414.867188 638.4375 414.621094 C 641.011719 414.132812 643.625 412.632812 645.515625 410.414062 C 647.425781 408.191406 648.675781 405.328125 648.984375 402.097656 C 649.046875 401.277344 649.074219 400.441406 649.074219 399.589844 C 649.085938 398.925781 649.09375 398.257812 649.101562 397.589844 C 649.109375 396.730469 649.121094 395.863281 649.125 394.988281 C 649.121094 394.113281 649.109375 393.25 649.101562 392.390625 C 649.09375 391.722656 649.085938 391.054688 649.074219 390.390625 C 649.074219 389.542969 649.046875 388.707031 648.984375 387.878906 C 648.671875 384.652344 647.429688 381.785156 645.515625 379.566406 C 643.617188 377.355469 641.011719 375.847656 638.4375 375.359375 C 637.128906 375.113281 635.734375 375.066406 634.347656 375.183594 C 633.664062 375.234375 632.984375 375.28125 632.316406 375.328125 L 631.378906 375.402344 L 630.855469 375.480469 C 625.3125 376.3125 620.765625 377.5 617.730469 378.910156 L 617.730469 387.09375 C 620.765625 388.503906 625.3125 389.6875 630.855469 390.523438 L 631.378906 390.601562 C 631.507812 390.628906 631.457031 390.652344 631.5 390.675781 L 631.617188 390.820312 C 631.683594 390.914062 631.734375 390.996094 631.761719 391.082031 C 631.828125 391.238281 631.800781 391.449219 631.742188 391.578125 C 631.679688 391.71875 631.589844 391.789062 631.527344 391.816406 L 631.488281 391.832031 L 631.472656 391.839844 L 631.460938 392.390625 C 631.457031 393.25 631.445312 394.113281 631.4375 394.988281 C 631.445312 395.863281 631.457031 396.730469 631.460938 397.589844 L 631.472656 398.140625 L 631.488281 398.144531 L 631.527344 398.164062 C 631.585938 398.191406 631.679688 398.261719 631.742188 398.402344 C 631.800781 398.53125 631.828125 398.742188 631.761719 398.898438 C 631.734375 398.976562 631.683594 399.066406 631.617188 399.160156 L 631.5 399.304688 C 631.457031 399.328125 631.507812 399.355469 631.378906 399.378906 L 630.855469 399.457031 C 625.3125 400.285156 620.765625 401.472656 617.730469 402.886719 Z M 617.730469 411.070312 " fill-opacity="1" fill-rule="nonzero"/></g><path fill="#231f20" d="M 488.921875 182.660156 C 488.648438 156.765625 487.304688 118 485.0625 70.84375 C 484.46875 59.058594 483.855469 46.746094 483.214844 33.972656 C 483.128906 32.378906 483.046875 30.773438 482.957031 29.160156 L 482.828125 26.742188 L 482.769531 25.527344 C 482.757812 25.167969 482.671875 24.421875 482.617188 23.886719 C 482.144531 19.203125 480.28125 14.582031 477.355469 10.765625 C 474.4375 6.941406 470.414062 3.902344 465.816406 2.140625 C 463.53125 1.222656 461.074219 0.730469 458.613281 0.484375 L 456.761719 0.386719 L 455.394531 0.363281 L 452.847656 0.339844 C 425.574219 0.117188 396.75 -0.00390625 366.941406 -0.00390625 C 337.132812 -0.00390625 308.308594 0.117188 281.039062 0.339844 L 278.488281 0.363281 L 277.121094 0.386719 L 275.269531 0.484375 C 272.808594 0.734375 270.359375 1.226562 268.066406 2.140625 C 263.460938 3.902344 259.445312 6.9375 256.523438 10.765625 C 253.597656 14.582031 251.734375 19.203125 251.261719 23.886719 C 251.203125 24.421875 251.121094 25.167969 251.109375 25.527344 L 251.042969 26.742188 L 250.914062 29.160156 C 250.832031 30.773438 250.746094 32.371094 250.664062 33.972656 C 250.023438 46.742188 249.410156 59.058594 248.816406 70.84375 C 246.574219 118 245.234375 156.765625 244.957031 182.660156 L 253.128906 183.195312 C 256.21875 157.484375 259.929688 118.875 263.835938 71.828125 C 264.785156 60.0625 265.773438 47.773438 266.792969 35.027344 C 266.917969 33.433594 267.042969 31.832031 267.167969 30.226562 L 267.355469 27.8125 L 267.453125 26.601562 C 267.480469 26.144531 267.523438 26.09375 267.550781 25.816406 C 267.769531 24.035156 268.523438 22.363281 269.648438 20.964844 C 270.777344 19.558594 272.304688 18.472656 273.996094 17.875 C 274.832031 17.535156 275.730469 17.425781 276.628906 17.328125 L 277.316406 17.308594 C 277.550781 17.289062 278.113281 17.308594 278.492188 17.308594 L 281.042969 17.328125 C 308.3125 17.550781 337.136719 17.675781 366.949219 17.675781 C 396.757812 17.675781 425.582031 17.550781 452.851562 17.328125 L 455.402344 17.308594 C 455.78125 17.308594 456.34375 17.289062 456.578125 17.308594 L 457.265625 17.328125 C 458.164062 17.425781 459.066406 17.535156 459.898438 17.875 C 461.589844 18.472656 463.117188 19.566406 464.246094 20.964844 C 465.367188 22.363281 466.125 24.035156 466.34375 25.816406 C 466.371094 26.089844 466.414062 26.144531 466.441406 26.601562 L 466.539062 27.8125 L 466.726562 30.226562 C 466.851562 31.832031 466.976562 33.433594 467.101562 35.027344 C 468.128906 47.773438 469.117188 60.0625 470.058594 71.828125 C 473.964844 118.875 477.675781 157.484375 480.765625 183.195312 Z M 488.921875 182.660156 " fill-opacity="1" fill-rule="nonzero"/><path fill="#231f20" d="M 440.113281 166.785156 C 440.5 151.839844 440.539062 131.546875 440.167969 105.351562 C 439.984375 92.257812 439.695312 77.679688 439.300781 61.5625 C 439.082031 53.5 438.851562 45.050781 438.617188 36.207031 C 438.484375 31.789062 438.351562 27.265625 438.210938 22.644531 C 437.953125 15.398438 437.691406 7.996094 437.417969 0.433594 C 431.308594 0.375 419.582031 0.257812 404.875 0.113281 C 393.804688 0.078125 380.5 0.0390625 366.929688 0 C 353.367188 0.0390625 340.054688 0.078125 328.984375 0.113281 C 314.277344 0.257812 302.546875 0.375 296.441406 0.433594 C 296.171875 7.996094 295.910156 15.398438 295.648438 22.644531 C 295.511719 27.265625 295.375 31.789062 295.242188 36.207031 C 295.003906 45.050781 294.773438 53.5 294.554688 61.5625 C 294.160156 77.679688 293.871094 92.257812 293.683594 105.351562 C 293.316406 131.546875 293.355469 151.832031 293.742188 166.785156 L 301.925781 167.132812 C 303.566406 152.265625 305.3125 132.054688 307.148438 105.921875 C 308.0625 92.859375 309.007812 78.3125 309.960938 62.214844 C 310.421875 54.164062 310.902344 45.726562 311.410156 36.894531 C 311.652344 32.480469 311.894531 27.960938 312.148438 23.34375 C 312.207031 22.191406 312.269531 21.03125 312.332031 19.867188 L 312.425781 18.109375 L 312.449219 17.667969 L 312.453125 17.628906 L 312.550781 17.238281 C 312.621094 17.269531 312.707031 17.300781 312.804688 17.339844 L 312.910156 17.386719 L 312.960938 17.40625 C 313.402344 17.414062 313.847656 17.417969 314.3125 17.429688 C 318.472656 17.46875 323.449219 17.511719 328.984375 17.570312 C 340.054688 17.601562 353.367188 17.640625 366.929688 17.679688 C 380.492188 17.640625 393.804688 17.601562 404.875 17.570312 C 410.410156 17.519531 415.382812 17.46875 419.550781 17.429688 C 420.011719 17.425781 420.457031 17.414062 420.898438 17.40625 L 420.949219 17.386719 L 421.0625 17.339844 C 421.160156 17.300781 421.246094 17.269531 421.316406 17.238281 L 421.414062 17.628906 L 421.417969 17.667969 L 421.441406 18.109375 L 421.53125 19.867188 C 421.589844 21.03125 421.652344 22.191406 421.714844 23.34375 C 421.964844 27.960938 422.210938 32.480469 422.449219 36.894531 C 422.957031 45.726562 423.4375 54.164062 423.902344 62.214844 C 424.859375 78.3125 425.796875 92.859375 426.710938 105.921875 C 428.546875 132.054688 430.292969 152.265625 431.933594 167.132812 Z M 440.113281 166.785156 " fill-opacity="1" fill-rule="nonzero"/><path fill="#231f20" d="M 301.921875 46.519531 L 431.945312 46.519531 L 431.945312 66.703125 L 301.921875 66.703125 Z M 301.921875 46.519531 " fill-opacity="1" fill-rule="nonzero"/><path fill="#231f20" d="M 301.921875 94.945312 L 431.945312 94.945312 L 431.945312 115.128906 L 301.921875 115.128906 Z M 301.921875 94.945312 " fill-opacity="1" fill-rule="nonzero"/><path fill="#231f20" d="M 432.507812 73.453125 L 478.632812 73.453125 L 478.632812 93.640625 L 432.507812 93.640625 Z M 432.507812 73.453125 " fill-opacity="1" fill-rule="nonzero"/><path fill="#231f20" d="M 432.507812 116.824219 L 478.632812 116.824219 L 478.632812 137.007812 L 432.507812 137.007812 Z M 432.507812 116.824219 " fill-opacity="1" fill-rule="nonzero"/><path fill="#231f20" d="M 255.796875 73.453125 L 301.921875 73.453125 L 301.921875 93.640625 L 255.796875 93.640625 Z M 255.796875 73.453125 " fill-opacity="1" fill-rule="nonzero"/><path fill="#231f20" d="M 255.796875 116.824219 L 301.921875 116.824219 L 301.921875 137.007812 L 255.796875 137.007812 Z M 255.796875 116.824219 " fill-opacity="1" fill-rule="nonzero"/><path fill="#231f20" d="M 250.953125 149.378906 C 247.878906 148.675781 244.035156 148.023438 239.5625 147.449219 C 237.324219 147.160156 234.925781 146.890625 232.386719 146.640625 C 231.121094 146.523438 229.8125 146.402344 228.476562 146.277344 C 227.050781 146.179688 226.042969 146.011719 223.855469 146.023438 C 216.089844 146.050781 207.324219 150.082031 202.113281 157.910156 C 200.824219 159.851562 199.730469 161.976562 198.953125 164.242188 C 198.40625 165.84375 197.859375 167.460938 197.304688 169.09375 C 196.25 172.335938 195.171875 175.644531 194.078125 179.007812 C 185.554688 206.011719 179.996094 230.015625 178.980469 242.582031 L 186.792969 245.046875 C 193.179688 234.175781 202.414062 211.332031 210.9375 184.328125 C 211.976562 180.941406 212.996094 177.613281 213.996094 174.359375 C 214.46875 172.746094 214.933594 171.15625 215.398438 169.585938 C 215.636719 168.683594 216.011719 167.839844 216.441406 167.039062 C 218.207031 163.820312 221.476562 161.65625 224.871094 161.027344 C 225.488281 160.875 227.21875 160.78125 228.476562 160.664062 C 229.8125 160.542969 231.121094 160.417969 232.386719 160.300781 C 234.925781 160.050781 237.324219 159.785156 239.5625 159.492188 C 244.035156 158.917969 247.878906 158.265625 250.953125 157.5625 Z M 250.953125 149.378906 " fill-opacity="1" fill-rule="nonzero"/><path fill="#231f20" d="M 484.835938 157.5625 C 487.910156 158.265625 491.75 158.917969 496.230469 159.492188 C 498.46875 159.785156 500.867188 160.050781 503.40625 160.300781 C 504.679688 160.417969 505.976562 160.542969 507.316406 160.664062 C 508.566406 160.78125 510.300781 160.875 510.921875 161.027344 C 514.3125 161.65625 517.582031 163.820312 519.351562 167.039062 C 519.78125 167.839844 520.15625 168.683594 520.394531 169.585938 C 520.859375 171.15625 521.320312 172.753906 521.796875 174.359375 C 522.792969 177.613281 523.816406 180.945312 524.851562 184.328125 C 533.378906 211.332031 542.613281 234.175781 549 245.046875 L 556.8125 242.582031 C 555.800781 230.015625 550.238281 206.011719 541.714844 179.007812 C 540.621094 175.640625 539.542969 172.328125 538.488281 169.09375 C 537.929688 167.460938 537.378906 165.839844 536.835938 164.242188 C 536.0625 161.976562 534.96875 159.851562 533.679688 157.910156 C 528.46875 150.082031 519.703125 146.050781 511.9375 146.023438 C 509.75 146.011719 508.738281 146.179688 507.316406 146.277344 C 505.976562 146.402344 504.671875 146.523438 503.40625 146.640625 C 500.867188 146.890625 498.46875 147.160156 496.230469 147.449219 C 491.757812 148.023438 487.910156 148.675781 484.835938 149.378906 Z M 484.835938 157.5625 " fill-opacity="1" fill-rule="nonzero"/><path fill="#231f20" d="M 480.75 584.804688 C 477.65625 610.515625 473.945312 649.125 470.042969 696.171875 C 469.09375 707.9375 468.105469 720.226562 467.085938 732.972656 C 466.960938 734.566406 466.839844 736.167969 466.710938 737.773438 L 466.519531 740.1875 L 466.425781 741.398438 C 466.398438 741.855469 466.355469 741.90625 466.324219 742.183594 C 466.109375 743.964844 465.355469 745.636719 464.226562 747.035156 C 463.101562 748.441406 461.566406 749.527344 459.882812 750.125 C 459.042969 750.464844 458.144531 750.574219 457.25 750.671875 L 456.5625 750.691406 C 456.328125 750.710938 455.765625 750.691406 455.382812 750.691406 L 452.835938 750.671875 C 425.5625 750.449219 396.742188 750.324219 366.929688 750.324219 C 337.121094 750.324219 308.296875 750.449219 281.027344 750.671875 L 278.476562 750.691406 C 278.097656 750.691406 277.535156 750.710938 277.300781 750.691406 L 276.613281 750.671875 C 275.714844 750.574219 274.8125 750.464844 273.980469 750.125 C 272.289062 749.527344 270.761719 748.433594 269.632812 747.035156 C 268.511719 745.636719 267.753906 743.964844 267.535156 742.183594 C 267.507812 741.910156 267.460938 741.855469 267.433594 741.398438 L 267.339844 740.1875 L 267.152344 737.773438 C 267.027344 736.167969 266.898438 734.566406 266.777344 732.972656 C 265.75 720.226562 264.761719 707.9375 263.820312 696.171875 C 259.914062 649.125 256.203125 610.515625 253.113281 584.804688 L 244.9375 585.339844 C 245.21875 611.234375 246.558594 650 248.800781 697.15625 C 249.390625 708.941406 250.011719 721.253906 250.648438 734.027344 C 250.730469 735.621094 250.8125 737.226562 250.898438 738.839844 L 251.027344 741.257812 L 251.09375 742.472656 C 251.105469 742.832031 251.1875 743.578125 251.242188 744.113281 C 251.71875 748.796875 253.582031 753.417969 256.503906 757.234375 C 259.421875 761.058594 263.445312 764.097656 268.046875 765.859375 C 270.335938 766.777344 272.792969 767.269531 275.25 767.515625 L 277.105469 767.617188 L 278.472656 767.636719 L 281.019531 767.660156 C 308.292969 767.882812 337.113281 768.003906 366.925781 768.003906 C 396.734375 768.003906 425.558594 767.882812 452.828125 767.660156 L 455.378906 767.636719 L 456.746094 767.617188 L 458.597656 767.515625 C 461.058594 767.265625 463.507812 766.773438 465.800781 765.859375 C 470.402344 764.097656 474.421875 761.0625 477.339844 757.234375 C 480.261719 753.417969 482.125 748.796875 482.601562 744.113281 C 482.65625 743.578125 482.738281 742.832031 482.75 742.472656 L 482.8125 741.257812 L 482.941406 738.839844 C 483.023438 737.226562 483.109375 735.628906 483.199219 734.027344 C 483.839844 721.257812 484.453125 708.941406 485.042969 697.15625 C 487.289062 650 488.625 611.234375 488.90625 585.339844 Z M 480.75 584.804688 " fill-opacity="1" fill-rule="nonzero"/><path fill="#231f20" d="M 431.933594 600.867188 C 430.292969 615.734375 428.546875 635.945312 426.710938 662.078125 C 425.796875 675.140625 424.855469 689.6875 423.902344 705.785156 C 423.4375 713.835938 422.957031 722.273438 422.449219 731.105469 C 422.210938 735.519531 421.964844 740.039062 421.714844 744.65625 C 421.652344 745.808594 421.589844 746.96875 421.53125 748.132812 L 421.441406 749.890625 L 421.417969 750.332031 L 421.414062 750.371094 L 421.316406 750.761719 C 421.246094 750.730469 421.160156 750.699219 421.0625 750.660156 L 420.949219 750.613281 L 420.898438 750.59375 C 420.464844 750.585938 420.011719 750.582031 419.550781 750.570312 C 415.386719 750.53125 410.410156 750.488281 404.875 750.429688 C 393.804688 750.398438 380.5 750.359375 366.929688 750.320312 C 353.367188 750.359375 340.054688 750.398438 328.984375 750.429688 C 323.449219 750.480469 318.480469 750.53125 314.3125 750.570312 C 313.847656 750.574219 313.402344 750.585938 312.960938 750.59375 L 312.910156 750.613281 L 312.804688 750.660156 C 312.707031 750.699219 312.617188 750.730469 312.550781 750.761719 L 312.453125 750.371094 L 312.449219 750.332031 L 312.425781 749.890625 L 312.332031 748.132812 C 312.269531 746.96875 312.207031 745.808594 312.148438 744.65625 C 311.894531 740.039062 311.652344 735.519531 311.410156 731.105469 C 310.902344 722.273438 310.421875 713.835938 309.960938 705.785156 C 309 689.6875 308.0625 675.140625 307.148438 662.078125 C 305.3125 635.945312 303.566406 615.734375 301.925781 600.867188 L 293.742188 601.214844 C 293.355469 616.160156 293.316406 636.453125 293.683594 662.648438 C 293.871094 675.742188 294.152344 690.320312 294.554688 706.4375 C 294.773438 714.5 295.003906 722.949219 295.242188 731.792969 C 295.375 736.210938 295.511719 740.734375 295.648438 745.355469 C 295.90625 752.601562 296.167969 760.003906 296.441406 767.566406 C 302.550781 767.625 314.277344 767.742188 328.984375 767.886719 C 340.054688 767.921875 353.367188 767.960938 366.929688 768 C 380.492188 767.960938 393.804688 767.921875 404.875 767.886719 C 419.582031 767.742188 431.316406 767.625 437.417969 767.566406 C 437.6875 760.003906 437.949219 752.601562 438.210938 745.355469 C 438.351562 740.734375 438.484375 736.210938 438.617188 731.792969 C 438.859375 722.949219 439.082031 714.5 439.300781 706.4375 C 439.695312 690.320312 439.984375 675.742188 440.171875 662.648438 C 440.539062 636.453125 440.492188 616.167969 440.113281 601.214844 Z M 431.933594 600.867188 " fill-opacity="1" fill-rule="nonzero"/><path fill="#231f20" d="M 301.921875 701.296875 L 431.945312 701.296875 L 431.945312 721.480469 L 301.921875 721.480469 Z M 301.921875 701.296875 " fill-opacity="1" fill-rule="nonzero"/><path fill="#231f20" d="M 301.921875 652.867188 L 431.945312 652.867188 L 431.945312 673.050781 L 301.921875 673.050781 Z M 301.921875 652.867188 " fill-opacity="1" fill-rule="nonzero"/><path fill="#231f20" d="M 432.507812 674.359375 L 478.632812 674.359375 L 478.632812 694.546875 L 432.507812 694.546875 Z M 432.507812 674.359375 " fill-opacity="1" fill-rule="nonzero"/><path fill="#231f20" d="M 432.507812 630.992188 L 478.632812 630.992188 L 478.632812 651.175781 L 432.507812 651.175781 Z M 432.507812 630.992188 " fill-opacity="1" fill-rule="nonzero"/><path fill="#231f20" d="M 255.796875 674.359375 L 301.921875 674.359375 L 301.921875 694.546875 L 255.796875 694.546875 Z M 255.796875 674.359375 " fill-opacity="1" fill-rule="nonzero"/><path fill="#231f20" d="M 255.796875 630.992188 L 301.921875 630.992188 L 301.921875 651.175781 L 255.796875 651.175781 Z M 255.796875 630.992188 " fill-opacity="1" fill-rule="nonzero"/><path fill="#231f20" d="M 250.953125 610.4375 C 247.878906 609.734375 244.035156 609.082031 239.5625 608.507812 C 237.324219 608.214844 234.925781 607.949219 232.386719 607.699219 C 231.121094 607.582031 229.8125 607.457031 228.476562 607.335938 C 227.226562 607.21875 225.488281 607.125 224.871094 606.972656 C 221.476562 606.34375 218.207031 604.179688 216.441406 600.960938 C 216.011719 600.160156 215.636719 599.316406 215.398438 598.414062 C 214.933594 596.84375 214.464844 595.246094 213.996094 593.640625 C 212.996094 590.386719 211.976562 587.054688 210.9375 583.671875 C 202.414062 556.667969 193.1875 533.824219 186.792969 522.953125 L 178.980469 525.417969 C 179.992188 537.984375 185.554688 561.988281 194.078125 588.992188 C 195.171875 592.359375 196.25 595.671875 197.304688 598.90625 C 197.859375 600.539062 198.414062 602.160156 198.953125 603.757812 C 199.730469 606.023438 200.824219 608.148438 202.113281 610.089844 C 207.324219 617.917969 216.089844 621.949219 223.855469 621.976562 C 226.042969 621.988281 227.050781 621.820312 228.476562 621.722656 C 229.8125 621.597656 231.121094 621.476562 232.386719 621.359375 C 234.925781 621.109375 237.324219 620.839844 239.5625 620.550781 C 244.035156 619.976562 247.878906 619.324219 250.953125 618.621094 Z M 250.953125 610.4375 " fill-opacity="1" fill-rule="nonzero"/><path fill="#231f20" d="M 484.835938 618.621094 C 487.910156 619.324219 491.75 619.976562 496.230469 620.550781 C 498.46875 620.839844 500.867188 621.109375 503.40625 621.359375 C 504.679688 621.476562 505.976562 621.597656 507.316406 621.722656 C 508.738281 621.820312 509.753906 621.988281 511.9375 621.976562 C 519.703125 621.949219 528.460938 617.917969 533.679688 610.089844 C 534.96875 608.148438 536.0625 606.023438 536.835938 603.757812 C 537.382812 602.15625 537.929688 600.539062 538.488281 598.90625 C 539.542969 595.664062 540.613281 592.355469 541.714844 588.992188 C 550.238281 561.988281 555.796875 537.984375 556.8125 525.417969 L 549 522.953125 C 542.613281 533.824219 533.378906 556.667969 524.851562 583.671875 C 523.816406 587.054688 522.792969 590.386719 521.796875 593.640625 C 521.320312 595.253906 520.859375 596.84375 520.394531 598.414062 C 520.15625 599.316406 519.78125 600.160156 519.351562 600.960938 C 517.582031 604.179688 514.3125 606.34375 510.921875 606.972656 C 510.300781 607.125 508.570312 607.21875 507.316406 607.335938 C 505.976562 607.457031 504.671875 607.582031 503.40625 607.699219 C 500.867188 607.949219 498.46875 608.214844 496.230469 608.507812 C 491.757812 609.082031 487.910156 609.734375 484.835938 610.4375 Z M 484.835938 618.621094 " fill-opacity="1" fill-rule="nonzero"/><path fill="#231f20" d="M 373.269531 268.695312 C 369.363281 268.695312 366.199219 265.53125 366.199219 261.628906 L 366.199219 224.679688 C 366.199219 220.777344 369.363281 217.613281 373.269531 217.613281 C 377.175781 217.613281 380.335938 220.777344 380.335938 224.679688 L 380.335938 261.628906 C 380.34375 265.527344 377.175781 268.695312 373.269531 268.695312 Z M 373.269531 268.695312 " fill-opacity="1" fill-rule="nonzero"/><path fill="#231f20" d="M 373.269531 554.070312 C 369.363281 554.070312 366.199219 550.910156 366.199219 547.007812 L 366.199219 510.054688 C 366.199219 506.152344 369.363281 502.992188 373.269531 502.992188 C 377.175781 502.992188 380.335938 506.152344 380.335938 510.054688 L 380.335938 547.007812 C 380.34375 550.902344 377.175781 554.070312 373.269531 554.070312 Z M 373.269531 554.070312 " fill-opacity="1" fill-rule="nonzero"/><path fill="#231f20" d="M 248.980469 392.90625 L 212.003906 392.90625 C 208.097656 392.90625 204.9375 389.742188 204.9375 385.839844 C 204.9375 381.9375 208.097656 378.777344 212.003906 378.777344 L 248.980469 378.777344 C 252.882812 378.777344 256.046875 381.9375 256.046875 385.839844 C 256.046875 389.742188 252.882812 392.90625 248.980469 392.90625 Z M 248.980469 392.90625 " fill-opacity="1" fill-rule="nonzero"/><path fill="#231f20" d="M 534.539062 392.90625 L 497.5625 392.90625 C 493.660156 392.90625 490.496094 389.742188 490.496094 385.839844 C 490.496094 381.9375 493.660156 378.777344 497.5625 378.777344 L 534.539062 378.777344 C 538.445312 378.777344 541.605469 381.9375 541.605469 385.839844 C 541.605469 389.742188 538.445312 392.90625 534.539062 392.90625 Z M 534.539062 392.90625 " fill-opacity="1" fill-rule="nonzero"/><path fill="#231f20" d="M 311.125 281.296875 C 310.082031 281.296875 309.0625 280.753906 308.5 279.777344 L 290.007812 247.78125 C 289.171875 246.328125 289.667969 244.480469 291.117188 243.640625 C 292.5625 242.804688 294.421875 243.296875 295.257812 244.75 L 313.75 276.75 C 314.585938 278.199219 314.089844 280.050781 312.636719 280.886719 C 312.164062 281.167969 311.640625 281.296875 311.125 281.296875 Z M 311.125 281.296875 " fill-opacity="1" fill-rule="nonzero"/><path fill="#231f20" d="M 453.90625 528.4375 C 452.863281 528.4375 451.84375 527.898438 451.277344 526.929688 L 432.789062 494.929688 C 431.953125 493.480469 432.449219 491.628906 433.898438 490.792969 C 435.34375 489.957031 437.203125 490.445312 438.039062 491.902344 L 456.527344 523.902344 C 457.367188 525.351562 456.867188 527.203125 455.417969 528.039062 C 454.945312 528.3125 454.417969 528.4375 453.90625 528.4375 Z M 453.90625 528.4375 " fill-opacity="1" fill-rule="nonzero"/><path fill="#231f20" d="M 233.613281 469.453125 C 232.570312 469.453125 231.550781 468.914062 230.984375 467.9375 C 230.148438 466.488281 230.644531 464.636719 232.09375 463.800781 L 264.113281 445.320312 C 265.558594 444.484375 267.417969 444.976562 268.253906 446.429688 C 269.09375 447.882812 268.59375 449.730469 267.144531 450.570312 L 235.125 469.046875 C 234.644531 469.320312 234.125 469.453125 233.613281 469.453125 Z M 233.613281 469.453125 " fill-opacity="1" fill-rule="nonzero"/><path fill="#231f20" d="M 480.914062 326.757812 C 479.871094 326.757812 478.851562 326.21875 478.289062 325.242188 C 477.449219 323.792969 477.949219 321.941406 479.398438 321.105469 L 511.417969 302.628906 C 512.863281 301.792969 514.71875 302.289062 515.558594 303.738281 C 516.394531 305.1875 515.898438 307.039062 514.445312 307.875 L 482.425781 326.351562 C 481.953125 326.632812 481.429688 326.757812 480.914062 326.757812 Z M 480.914062 326.757812 " fill-opacity="1" fill-rule="nonzero"/><path fill="#231f20" d="M 265.628906 326.757812 C 265.113281 326.757812 264.589844 326.625 264.113281 326.351562 L 232.09375 307.875 C 230.644531 307.039062 230.148438 305.1875 230.984375 303.738281 C 231.820312 302.289062 233.679688 301.792969 235.125 302.628906 L 267.144531 321.105469 C 268.59375 321.941406 269.09375 323.792969 268.253906 325.242188 C 267.695312 326.21875 266.675781 326.757812 265.628906 326.757812 Z M 265.628906 326.757812 " fill-opacity="1" fill-rule="nonzero"/><path fill="#231f20" d="M 512.929688 469.453125 C 512.417969 469.453125 511.890625 469.324219 511.417969 469.046875 L 479.398438 450.570312 C 477.949219 449.730469 477.449219 447.882812 478.289062 446.429688 C 479.125 444.980469 480.976562 444.484375 482.425781 445.320312 L 514.445312 463.800781 C 515.898438 464.636719 516.394531 466.488281 515.558594 467.9375 C 514.992188 468.90625 513.976562 469.453125 512.929688 469.453125 Z M 512.929688 469.453125 " fill-opacity="1" fill-rule="nonzero"/><path fill="#231f20" d="M 292.636719 528.4375 C 292.125 528.4375 291.597656 528.3125 291.125 528.03125 C 289.675781 527.195312 289.175781 525.34375 290.015625 523.894531 L 308.503906 491.894531 C 309.339844 490.445312 311.199219 489.949219 312.644531 490.785156 C 314.09375 491.621094 314.589844 493.472656 313.753906 494.921875 L 295.265625 526.921875 C 294.699219 527.898438 293.679688 528.4375 292.636719 528.4375 Z M 292.636719 528.4375 " fill-opacity="1" fill-rule="nonzero"/><path fill="#231f20" d="M 435.417969 281.296875 C 434.902344 281.296875 434.378906 281.160156 433.90625 280.886719 C 432.453125 280.050781 431.957031 278.199219 432.792969 276.75 L 451.285156 244.75 C 452.121094 243.300781 453.980469 242.804688 455.421875 243.640625 C 456.875 244.480469 457.371094 246.328125 456.535156 247.78125 L 438.042969 279.777344 C 437.480469 280.753906 436.460938 281.296875 435.417969 281.296875 Z M 435.417969 281.296875 " fill-opacity="1" fill-rule="nonzero"/><path fill="#231f20" d="M 380.375 378.953125 C 378.785156 367.875 372.191406 347.171875 362.535156 324.15625 C 352.882812 301.144531 342.734375 281.925781 335.941406 273.027344 L 328.390625 276.1875 C 329.980469 287.265625 336.574219 307.96875 346.230469 330.984375 C 355.882812 353.996094 366.03125 373.214844 372.820312 382.117188 Z M 380.375 378.953125 " fill-opacity="1" fill-rule="nonzero"/><path fill="#231f20" d="M 379.863281 386.925781 C 391.785156 375.824219 412.664062 351.40625 434.957031 321.914062 C 457.253906 292.425781 475.058594 265.683594 482.484375 251.179688 L 475.949219 246.246094 C 464.027344 257.347656 443.148438 281.769531 420.855469 311.257812 C 398.558594 340.75 380.757812 367.492188 373.328125 381.992188 Z M 379.863281 386.925781 " fill-opacity="1" fill-rule="nonzero"/><path fill="#231f20" d="M 374.773438 400.191406 C 371.554688 400.191406 368.421875 399.273438 365.707031 397.539062 C 361.921875 395.113281 359.304688 391.359375 358.34375 386.972656 C 357.378906 382.582031 358.1875 378.078125 360.613281 374.296875 C 363.722656 369.449219 369.023438 366.546875 374.792969 366.546875 C 378.011719 366.546875 381.148438 367.46875 383.859375 369.203125 C 391.675781 374.210938 393.960938 384.628906 388.957031 392.4375 C 385.84375 397.296875 380.542969 400.191406 374.773438 400.191406 Z M 374.773438 380.007812 C 373.640625 380.007812 372.558594 380.597656 371.945312 381.550781 C 370.941406 383.117188 371.398438 385.199219 372.960938 386.195312 C 374.457031 387.15625 376.660156 386.675781 377.613281 385.175781 C 378.09375 384.433594 378.257812 383.507812 378.066406 382.644531 C 377.878906 381.78125 377.339844 381.011719 376.59375 380.53125 C 376.0625 380.199219 375.417969 380.007812 374.773438 380.007812 Z M 374.773438 380.007812 " fill-opacity="1" fill-rule="nonzero"/><path fill="#231f20" d="M 255.734375 445.773438 C 273.695312 438.824219 308.609375 422.933594 348.269531 403.425781 C 387.929688 383.917969 421.824219 365.957031 438.289062 355.976562 L 436.121094 351.570312 C 418.160156 358.523438 383.246094 374.410156 343.585938 393.917969 C 303.921875 413.429688 270.027344 431.386719 253.566406 441.375 Z M 255.734375 445.773438 " fill-opacity="1" fill-rule="nonzero"/></svg>