<svg width="34" height="30" viewBox="0 0 34 30" fill="none" xmlns="http://www.w3.org/2000/svg">
<g id="XMLID_801_">
<path id="XMLID_802_" d="M7.91398 9.65149H1.08843C0.785497 9.65149 0.540039 9.86817 0.540039 10.1354V29.4832C0.540039 29.7505 0.785497 29.9671 1.08843 29.9671H7.91398C8.21691 29.9671 8.46237 29.7505 8.46237 29.4832V10.1354C8.46237 9.86817 8.21691 9.65149 7.91398 9.65149Z" fill="white"/>
<path id="XMLID_803_" d="M4.50401 0.0332031C2.02048 0.0332031 0 1.81404 0 4.00298C0 6.19288 2.02048 7.9744 4.50401 7.9744C6.98557 7.9744 9.00441 6.19278 9.00441 4.00298C9.00452 1.81404 6.98557 0.0332031 4.50401 0.0332031Z" fill="white"/>
<path id="XMLID_804_" d="M25.275 9.1709C22.5336 9.1709 20.5071 10.2107 19.278 11.3923V10.1356C19.278 9.86845 19.0325 9.65177 18.7296 9.65177H12.1929C11.89 9.65177 11.6445 9.86845 11.6445 10.1356V29.4835C11.6445 29.7508 11.89 29.9674 12.1929 29.9674H19.0036C19.3065 29.9674 19.5519 29.7508 19.5519 29.4835V19.9108C19.5519 16.685 20.545 15.4283 23.0934 15.4283C25.8689 15.4283 26.0895 17.443 26.0895 20.0768V29.4836C26.0895 29.7509 26.3349 29.9675 26.6379 29.9675H33.451C33.754 29.9675 33.9994 29.7509 33.9994 29.4836V18.871C33.9994 14.0743 32.9629 9.1709 25.275 9.1709Z" fill="white"/>
</g>
</svg>
