<svg width="33" height="27" viewBox="0 0 33 27" fill="none" xmlns="http://www.w3.org/2000/svg">
<path d="M32.9148 4.23638C32.766 3.48705 32.4338 2.80134 31.9698 2.23486C31.8719 2.11143 31.7697 2.00089 31.6589 1.89036C30.8368 1.0642 29.683 0.548828 28.4225 0.548828H4.57753C3.31702 0.548828 2.1673 1.0642 1.34133 1.89036C1.2308 2.00089 1.12857 2.11143 1.03048 2.23486C0.566221 2.80127 0.233965 3.48705 0.089332 4.23638C0.0299063 4.52559 0 4.82445 0 5.12661V21.8737C0 22.5161 0.136254 23.1337 0.379242 23.6914C0.604635 24.2238 0.936955 24.7055 1.34127 25.1095C1.44375 25.2117 1.54552 25.3057 1.65657 25.3991C2.44845 26.0549 3.47061 26.451 4.57753 26.451H28.4225C29.5298 26.451 30.5564 26.0549 31.3437 25.395C31.4544 25.3057 31.5567 25.2117 31.6589 25.1095C32.063 24.7055 32.3953 24.2238 32.6253 23.6914V23.6873C32.8683 23.1296 32.9999 22.5161 32.9999 21.8737V5.12661C33 4.82445 32.9705 4.52559 32.9148 4.23638ZM2.99765 3.54648C3.40661 3.13797 3.95581 2.89067 4.57753 2.89067H28.4225C29.0442 2.89067 29.5982 3.13797 30.0023 3.54648C30.0747 3.61925 30.1428 3.70033 30.2029 3.78089L17.705 14.6731C17.3603 14.9752 16.9345 15.1244 16.5 15.1244C16.0698 15.1244 15.6443 14.9752 15.295 14.6731L2.80191 3.77625C2.85721 3.69569 2.92533 3.61925 2.99765 3.54648ZM2.34184 21.8737V6.19963L11.3862 14.0897L2.34642 21.9713C2.34184 21.9414 2.34184 21.9078 2.34184 21.8737ZM28.4225 24.1087H4.57753C4.1727 24.1087 3.7939 24.0023 3.47061 23.8153L13.0083 15.5035L13.8987 16.2781C14.6438 16.9256 15.5763 17.2535 16.5 17.2535C17.4285 17.2535 18.3609 16.9256 19.106 16.2781L19.9959 15.5035L29.5298 23.8153C29.2061 24.0023 28.8273 24.1087 28.4225 24.1087ZM30.6582 21.8737C30.6582 21.9078 30.6582 21.9414 30.6538 21.9713L21.6141 14.0942L30.6582 6.20382V21.8737Z" fill="white"/>
</svg>
