<svg width="35" height="29" viewBox="0 0 35 29" fill="none" xmlns="http://www.w3.org/2000/svg">
<path d="M2.50829 12.5925L22.54 4.32823C24.5167 3.46737 31.2204 0.712604 31.2204 0.712604C31.2204 0.712604 34.3144 -0.492604 34.0565 2.43433C33.9706 3.63954 33.283 7.85777 32.5955 12.427L30.4468 25.9491C30.4468 25.9491 30.275 27.9291 28.8139 28.2735C27.3528 28.6178 24.9464 27.0683 24.5167 26.7239C24.1729 26.4657 18.0709 22.5918 15.8363 20.6979C15.2347 20.1814 14.5471 19.1483 15.9222 17.9431C19.0162 15.1023 22.7118 11.5727 24.9464 9.33448C25.9777 8.30144 27.0091 5.89103 22.7119 8.81796L10.5871 16.9829C10.5871 16.9829 9.21196 17.8438 6.63363 17.069C4.05529 16.2942 1.04724 15.2612 1.04724 15.2612C1.04724 15.2612 -1.01543 13.9699 2.50829 12.5925Z" fill="white"/>
</svg>
