<svg width="246" height="32" viewBox="0 0 246 32" fill="none" xmlns="http://www.w3.org/2000/svg">
<path d="M16.0001 0L0 15.9999L16.0001 32L31.9998 15.9999L16.0001 0ZM16.0001 29.5384L2.46166 15.9999L16.0001 2.46141L29.5388 15.9999L16.0001 29.5384Z" fill="#C9AF7F"/>
<path d="M14.0167 10.606L13.2491 12.8596L12.8736 11.9942L11.4365 13.7415V18.4445L12.8736 20.1919V15.1295L13.3961 16.2891L14.0167 14.3784V21.5801L15.4537 23.3274L15.4701 8.8587L14.0167 10.606Z" fill="#C9AF7F"/>
<path d="M17.9791 16.8116H19.5142V15.3745H17.9791V12.8596L19.5142 14.7213L20.461 13.6109L16.542 8.8587V23.3274L17.9791 21.5801V16.8116Z" fill="#C9AF7F"/>
<path d="M48 22.8105C48.4735 22.7724 48.6623 22.7539 49.003 22.7539C49.3246 22.7539 49.514 22.7724 49.9678 22.8105C50.1 20.5027 50.1572 19.5754 50.3459 17.9483C50.4978 16.5672 50.5919 15.8108 50.876 13.8996C51.8599 15.7917 52.2381 16.5487 52.9004 17.9292C53.6758 19.5563 54.1302 20.4836 55.1516 22.8105C55.3785 22.7914 55.4732 22.7914 55.6435 22.7914C55.8139 22.7914 55.8895 22.7914 56.1164 22.8105C57.1003 20.5027 57.535 19.5754 58.292 17.9673C58.9543 16.5862 59.3325 15.8108 60.3538 13.9187C60.6189 15.7917 60.7327 16.5487 60.8649 17.9292C61.0352 19.5563 61.0918 20.5027 61.1865 22.8105C61.9434 22.7539 62.2269 22.7539 62.7754 22.7539C63.3246 22.7539 63.608 22.7539 64.365 22.8105C63.9487 20.5402 63.7974 19.6135 63.5705 17.9864C63.3246 16.2455 63.097 14.6566 62.9458 13.2189C62.8136 11.9325 62.7379 11.138 62.6242 9.18929C62.1894 9.22679 62 9.22679 61.7165 9.22679C61.4515 9.22679 61.3002 9.22679 60.8839 9.18929C60.0704 11.1755 59.6922 11.989 59.1056 13.238C58.5571 14.4488 57.5732 16.5106 56.7978 17.9483L56.3624 18.7618L55.9461 17.9864C55.1325 16.4725 54.1302 14.4488 53.5811 13.2755C52.976 12.0081 52.5978 11.1755 51.7461 9.17023C51.3108 9.22679 51.1411 9.22679 50.8379 9.22679C50.5735 9.22679 50.4031 9.22679 50.0059 9.17023C49.8356 11.138 49.7409 11.9509 49.5896 13.2564C49.4002 14.7513 49.2299 16.3028 48.9464 17.9292C48.6623 19.5563 48.4919 20.5027 48 22.8105Z" fill="white"/>
<path d="M66.6328 16.151C66.6328 20.1996 69.5457 22.9809 73.7647 22.9809C78.1159 22.9809 81.0866 20.124 81.0866 15.9813C81.0866 11.857 78.1159 9 73.8403 9C69.5273 9 66.6328 11.857 66.6328 16.151ZM73.7838 10.1727C74.692 10.1727 75.5996 10.4568 76.3375 10.9678C77.624 11.8945 78.1915 13.4834 78.1915 16.2082C78.1915 19.8024 76.6026 21.8833 73.8403 21.8833C71.0597 21.8833 69.4891 19.8024 69.4891 16.0569C69.4891 12.2542 71.0025 10.1727 73.7838 10.1727Z" fill="white"/>
<path d="M84.0752 9.18939C84.1699 11.1565 84.2265 11.9891 84.2646 13.2756C84.3021 14.07 84.283 14.9402 84.283 15.8293C84.283 17.3617 84.2646 19.027 84.2074 20.5028C84.189 21.0132 84.1699 21.7892 84.1318 22.8106C84.5106 22.7725 84.6618 22.7725 84.9078 22.7725C85.1722 22.7725 85.3426 22.7725 85.7214 22.8106C85.6642 20.5028 85.6267 19.5564 85.6267 17.9674V17.2105L85.6457 14.9974V13.2565L86.3455 14.051C87.1781 14.9974 88.7671 16.8323 89.6753 17.9293C90.9617 19.4433 91.7372 20.4456 93.6293 22.8106C94.0456 22.7725 94.2344 22.7725 94.5185 22.7725C94.8019 22.7725 94.9914 22.7725 95.4077 22.8106C95.332 20.5212 95.332 19.6136 95.313 17.9484C95.313 17.2486 95.2939 16.5298 95.2939 15.8109C95.2939 14.2029 95.313 12.6889 95.3695 11.2894C95.3886 10.8165 95.4077 10.1351 95.4452 9.18939C95.0479 9.22689 94.9157 9.22689 94.6316 9.22689C94.3481 9.22689 94.1778 9.22689 93.7996 9.18939C93.8753 11.1565 93.8937 11.9701 93.9128 13.2565C93.9128 13.8997 93.9318 14.5429 93.9318 15.2808C93.9318 15.7728 93.9128 16.2838 93.9128 16.7757V18.8001L92.1725 16.7942C90.9045 15.319 89.9779 14.2404 89.1643 13.2756C88.1239 12.0082 87.4616 11.1947 85.9101 9.18939C85.4754 9.22689 85.3051 9.24596 84.9644 9.24596C84.6618 9.24596 84.5106 9.22689 84.0752 9.18939Z" fill="white"/>
<path d="M97.5061 22.8106C97.9605 22.7725 98.1493 22.754 98.4519 22.754C98.7735 22.754 98.9629 22.7725 99.4167 22.8106C99.7008 21.997 99.7955 21.6564 100.003 21.1079C100.363 20.1996 100.552 19.6702 101.119 18.3272C102.274 18.2891 102.766 18.2891 103.693 18.2891C104.412 18.2891 104.809 18.2891 105.849 18.3081C106.266 19.5945 106.436 20.0865 106.7 21.0322C106.89 21.6564 106.985 21.978 107.211 22.8106C108.006 22.7725 108.328 22.754 108.914 22.754C109.482 22.754 109.803 22.7725 110.598 22.8106C110.22 21.978 110.049 21.5998 109.841 21.0888C109.35 19.9352 108.725 18.2509 107.949 16.0378C106.985 13.2565 106.436 11.5353 105.944 9.90824C105.906 9.75697 105.83 9.511 105.736 9.18939C105.187 9.26503 104.96 9.26503 104.544 9.26503C104.147 9.26503 103.901 9.24596 103.333 9.18939L103.106 9.79447C102.633 11.0618 101.669 13.4268 100.59 16.0378C99.6061 18.3838 98.8497 20.143 98.244 21.3538C98.0362 21.7892 97.8843 22.0918 97.5061 22.8106ZM105.433 16.927C104.544 16.9461 104.184 16.9461 103.579 16.9461C102.936 16.9461 102.558 16.9461 101.669 16.9079L103.73 11.9891L105.433 16.927Z" fill="white"/>
<path d="M123.915 10.1726C123.064 9.71882 122.723 9.58662 122.118 9.39722C121.285 9.15124 120.415 9.01904 119.526 9.01904C115.118 9.01904 112.224 11.7622 112.224 15.9997C112.224 20.2377 115.118 23 119.469 23C120.718 23 121.891 22.7724 122.856 22.3377C123.007 22.2811 123.234 22.1483 123.536 21.997C123.555 21.486 123.575 21.2591 123.631 20.9C123.669 20.5593 123.688 20.3509 123.801 19.8214L123.631 19.7458C122.269 21.2216 121.21 21.7511 119.715 21.7511C116.877 21.7511 115.118 19.5945 115.118 16.1509C115.118 12.4245 116.707 10.2489 119.45 10.2489C121.021 10.2489 122.383 11.0052 123.329 12.462L123.536 12.4054C123.575 11.8944 123.612 11.6866 123.669 11.3078C123.726 10.9296 123.764 10.7027 123.915 10.1726Z" fill="white"/>
<path d="M126.166 16.151C126.166 20.1996 129.079 22.9809 133.298 22.9809C137.649 22.9809 140.62 20.124 140.62 15.9813C140.62 11.857 137.649 9 133.374 9C129.06 9 126.166 11.857 126.166 16.151ZM133.317 10.1727C134.225 10.1727 135.133 10.4568 135.871 10.9678C137.157 11.8945 137.725 13.4834 137.725 16.2082C137.725 19.8024 136.136 21.8833 133.374 21.8833C130.593 21.8833 129.022 19.8024 129.022 16.0569C129.022 12.2542 130.536 10.1727 133.317 10.1727Z" fill="white"/>
<path d="M150.551 22.8106C151.231 22.7725 151.516 22.754 151.988 22.754C152.518 22.754 152.82 22.7725 153.558 22.8106C153.445 20.8619 153.407 20.1049 153.407 18.6672V16.3403H154.031C154.675 16.3403 155.507 16.3213 156.094 16.3594C156.453 16.3785 157.02 16.416 157.777 16.4541C157.702 16.0753 157.702 15.924 157.702 15.6596C157.702 15.4137 157.702 15.2618 157.758 14.9217C156.075 15.0349 155.337 15.0539 154.088 15.0539H153.407C153.388 14.0135 153.388 13.5597 153.388 12.8027C153.388 12.1404 153.388 11.6866 153.407 10.6271H154.108C155.337 10.6271 156.094 10.6462 157.91 10.7218C157.872 10.3811 157.872 10.2298 157.872 9.98387C157.872 9.71883 157.872 9.5485 157.91 9.18939C156.075 9.26503 155.205 9.28346 154.183 9.28346C153.331 9.28346 152.291 9.26503 151.402 9.22689C151.231 9.22689 150.948 9.20782 150.551 9.18939C150.664 11.1565 150.702 11.9701 150.74 13.2946C150.759 14.1838 150.759 15.0349 150.759 15.924C150.759 17.5321 150.72 19.2164 150.645 20.7297C150.626 21.2026 150.588 21.8833 150.551 22.8106Z" fill="white"/>
<path d="M160.009 16.151C160.009 20.1996 162.922 22.9809 167.141 22.9809C171.492 22.9809 174.463 20.124 174.463 15.9813C174.463 11.857 171.492 9 167.217 9C162.903 9 160.009 11.857 160.009 16.151ZM167.16 10.1727C168.068 10.1727 168.976 10.4568 169.714 10.9678C171 11.8945 171.568 13.4834 171.568 16.2082C171.568 19.8024 169.979 21.8833 167.217 21.8833C164.436 21.8833 162.865 19.8024 162.865 16.0569C162.865 12.2542 164.379 10.1727 167.16 10.1727Z" fill="white"/>
<path d="M177.45 9.17023C177.564 11.1946 177.582 12.0272 177.582 13.2945V15.7161L177.564 18.2699C177.545 20.8427 180.174 22.9999 183.277 22.9999C186.531 22.9999 188.99 20.654 188.99 17.5892V13.2945C188.99 11.8753 189.029 11.1189 189.142 9.17023C188.764 9.22679 188.593 9.22679 188.291 9.22679C188.045 9.22679 187.874 9.22679 187.515 9.18929C187.609 11.1189 187.648 11.8943 187.648 13.2945V16.2081C187.648 17.4379 187.553 18.3455 187.345 19.0269C186.871 20.5783 185.567 21.505 183.826 21.505C182.104 21.505 180.723 20.5593 180.42 19.1781C180.307 18.6862 180.269 18.1186 180.269 16.6619V13.2945C180.269 12.1594 180.326 11.2702 180.477 9.18929C179.758 9.24586 179.475 9.24586 178.983 9.24586C178.453 9.24586 178.169 9.24586 177.45 9.17023Z" fill="white"/>
<path d="M192.413 9.18939C192.508 11.1565 192.564 11.9891 192.602 13.2756C192.64 14.07 192.621 14.9402 192.621 15.8293C192.621 17.3617 192.602 19.027 192.545 20.5028C192.527 21.0132 192.508 21.7892 192.47 22.8106C192.848 22.7725 193 22.7725 193.246 22.7725C193.51 22.7725 193.68 22.7725 194.059 22.8106C194.002 20.5028 193.965 19.5564 193.965 17.9674V17.2105L193.984 14.9974V13.2565L194.683 14.051C195.516 14.9974 197.105 16.8323 198.013 17.9293C199.3 19.4433 200.075 20.4456 201.967 22.8106C202.383 22.7725 202.572 22.7725 202.856 22.7725C203.14 22.7725 203.329 22.7725 203.746 22.8106C203.67 20.5212 203.67 19.6136 203.651 17.9484C203.651 17.2486 203.632 16.5298 203.632 15.8109C203.632 14.2029 203.651 12.6889 203.707 11.2894C203.726 10.8165 203.746 10.1351 203.783 9.18939C203.386 9.22689 203.254 9.22689 202.97 9.22689C202.686 9.22689 202.516 9.22689 202.138 9.18939C202.213 11.1565 202.232 11.9701 202.251 13.2565C202.251 13.8997 202.27 14.5429 202.27 15.2808C202.27 15.7728 202.251 16.2838 202.251 16.7757V18.8001L200.51 16.7942C199.242 15.319 198.316 14.2404 197.502 13.2756C196.462 12.0082 195.799 11.1947 194.248 9.18939C193.813 9.22689 193.643 9.24596 193.302 9.24596C193 9.24596 192.848 9.22689 192.413 9.18939Z" fill="white"/>
<path d="M207.245 22.8106C208.021 22.7724 208.342 22.754 208.834 22.754C209.251 22.754 209.818 22.7724 210.594 22.8106C211.161 22.8297 211.672 22.8487 212.126 22.8487C214.983 22.8487 217.064 21.8076 218.407 19.7267C219.164 18.5541 219.58 17.173 219.58 15.7537C219.58 11.6866 216.894 9.15125 212.58 9.15125C212.089 9.15125 211.521 9.17031 210.897 9.20781C209.969 9.24595 209.289 9.28345 208.872 9.28345C208.361 9.28345 208.021 9.26501 207.245 9.20781C207.358 11.1756 207.397 11.9891 207.434 13.3137C207.472 14.1272 207.453 14.9217 207.453 15.7162C207.453 17.3999 207.416 19.2164 207.34 20.8053C207.321 21.2591 207.283 21.9023 207.245 22.8106ZM211.464 10.4567C215.021 10.4567 216.686 12.197 216.686 15.9431C216.686 18.1753 215.91 19.9352 214.529 20.8428C213.716 21.3729 212.902 21.5998 211.54 21.5998C211.105 21.5998 210.707 21.5807 210.121 21.5432L210.102 18.8V13.2946L210.121 10.5133C210.651 10.4758 211.01 10.4567 211.464 10.4567Z" fill="white"/>
<path d="M222.605 22.8106C223.305 22.7725 223.589 22.754 224.1 22.754C224.611 22.754 224.894 22.7725 225.613 22.8106C225.5 20.8619 225.462 20.0674 225.462 18.6863V16.7185C226.37 17.8353 226.711 18.3081 227.316 19.1782C228.129 20.37 228.527 21.0513 229.51 22.8106C230.4 22.7725 230.74 22.754 231.384 22.754C231.989 22.754 232.348 22.7725 233.218 22.8106C231.724 21.0888 231.175 20.389 230.154 19.027C229.491 18.1569 228.943 17.3999 228.508 16.7185C228.413 16.5673 228.338 16.4541 228.167 16.2082C228.83 16.0944 229.227 15.9813 229.643 15.7919C230.778 15.2433 231.554 13.9754 231.554 12.6889C231.554 10.5133 229.851 9.1322 227.145 9.1322C226.711 9.1322 226.238 9.15127 225.727 9.1894C224.875 9.24597 224.289 9.26504 223.968 9.26504C223.627 9.26504 223.267 9.24597 222.624 9.1894C222.719 11.1565 222.757 11.951 222.794 13.3137C222.813 14.2213 222.813 15.0921 222.813 15.9997C222.813 17.6077 222.775 19.2729 222.7 20.7297C222.681 21.2026 222.643 21.8833 222.605 22.8106ZM225.462 10.5324C225.841 10.4758 226.067 10.4568 226.389 10.4568C227.997 10.4568 228.753 11.2512 228.753 12.9349C228.753 14.6758 227.864 15.5649 226.143 15.5649C225.916 15.5649 225.746 15.5459 225.462 15.5077V10.5324Z" fill="white"/>
<path d="M233.143 9.18939C234.334 11.0434 234.808 11.7813 235.602 13.1618C236.434 14.5811 236.87 15.3946 237.948 17.3999V18.0431C237.948 18.9323 237.929 19.9352 237.891 20.7488C237.873 21.2216 237.834 21.8833 237.74 22.8106C238.478 22.754 238.78 22.754 239.291 22.754C239.821 22.754 240.105 22.754 240.843 22.8106C240.691 20.8619 240.634 20.0865 240.634 18.7054V16.9836C241.599 15.2052 241.978 14.4864 242.697 13.2381C243.472 11.8944 243.945 11.1 245.137 9.18939C244.588 9.22689 244.38 9.24596 243.983 9.24596C243.642 9.24596 243.435 9.22689 242.905 9.18939C242.053 11.1756 241.694 11.9701 241.013 13.3137C240.634 14.051 240.445 14.4489 239.897 15.4321C239.291 14.4107 239.083 13.9944 238.686 13.2756C237.967 11.951 237.588 11.1565 236.68 9.18939C235.867 9.26503 235.545 9.26503 234.921 9.26503C234.316 9.26503 233.975 9.26503 233.143 9.18939Z" fill="white"/>
</svg>
