<svg width="489" height="200" viewBox="0 0 489 200" fill="none" xmlns="http://www.w3.org/2000/svg">
<g filter="url(#filter0_d_2900_2711)">
<path d="M476.782 1.17385C476.326 0.482394 475.395 0.291741 474.704 0.748013L463.436 8.18338C462.744 8.63966 462.554 9.57007 463.01 10.2615C463.466 10.953 464.397 11.1436 465.088 10.6874L475.104 4.07814L481.713 14.094C482.17 14.7855 483.1 14.9761 483.791 14.5199C484.483 14.0636 484.673 13.1332 484.217 12.4417L476.782 1.17385ZM6.02992 90.0564C4.53265 89.9659 4.53255 89.9676 4.53242 89.9699C4.53233 89.9712 4.53218 89.974 4.53202 89.9767C4.53171 89.9822 4.53129 89.9896 4.5308 89.9989C4.52981 90.0174 4.52848 90.0434 4.52694 90.0767C4.52385 90.1434 4.51988 90.2394 4.51594 90.3637C4.50807 90.6123 4.50033 90.9741 4.50001 91.4408C4.49938 92.3739 4.52846 93.7267 4.64576 95.4314C4.88031 98.84 5.46796 103.661 6.87869 109.35C9.70068 120.731 15.8205 135.602 29.0012 149.576C55.4036 177.569 109.732 201.574 221.217 187.58L220.843 184.604C109.828 198.538 56.6562 174.525 31.1836 147.518C18.4268 133.993 12.5154 119.618 9.79051 108.628C8.42781 103.133 7.86311 98.487 7.63868 95.2254C7.52649 93.5951 7.49942 92.3119 7.50001 91.4428C7.5003 91.0083 7.50751 90.6775 7.51444 90.4587C7.5179 90.3493 7.5213 90.2679 7.52372 90.2156C7.52493 90.1895 7.5259 90.1706 7.52652 90.1591C7.52682 90.1534 7.52704 90.1495 7.52716 90.1475C7.52721 90.1465 7.52722 90.1463 7.52725 90.1458C7.52723 90.1462 7.52718 90.147 6.02992 90.0564ZM221.217 187.58C332.838 173.57 396.807 127.363 432.865 84.5395C450.881 63.1425 461.907 42.6176 468.432 27.4292C471.694 19.8346 473.832 13.5723 475.156 9.19948C475.818 7.01296 476.277 5.29849 476.571 4.12567C476.718 3.53925 476.824 3.0882 476.894 2.78122C476.929 2.62772 476.955 2.51025 476.972 2.42987C476.981 2.38968 476.987 2.35876 476.992 2.33726C476.994 2.32651 476.996 2.31811 476.997 2.31208C476.998 2.30906 476.998 2.30632 476.999 2.30481C476.999 2.30266 476.999 2.30111 475.53 2C474.06 1.69889 474.06 1.69853 474.06 1.69876C474.06 1.69963 474.06 1.70045 474.06 1.70219C474.059 1.70565 474.058 1.71148 474.056 1.71966C474.053 1.73601 474.047 1.76174 474.04 1.79672C474.025 1.86668 474.001 1.97362 473.969 2.11645C473.904 2.40213 473.803 2.8314 473.661 3.39558C473.378 4.52396 472.932 6.19187 472.285 8.33003C470.99 12.6065 468.889 18.7628 465.675 26.2451C459.246 41.2102 448.366 61.472 430.57 82.6072C395.003 124.848 331.722 170.687 220.843 184.604L221.217 187.58Z" fill="url(#paint0_linear_2900_2711)"/>
</g>
<defs>
<filter id="filter0_d_2900_2711" x="0.5" y="0.499878" width="487.965" height="199.189" filterUnits="userSpaceOnUse" color-interpolation-filters="sRGB">
<feFlood flood-opacity="0" result="BackgroundImageFix"/>
<feColorMatrix in="SourceAlpha" type="matrix" values="0 0 0 0 0 0 0 0 0 0 0 0 0 0 0 0 0 0 127 0" result="hardAlpha"/>
<feOffset dy="4"/>
<feGaussianBlur stdDeviation="2"/>
<feComposite in2="hardAlpha" operator="out"/>
<feColorMatrix type="matrix" values="0 0 0 0 0 0 0 0 0 0 0 0 0 0 0 0 0 0 0.25 0"/>
<feBlend mode="normal" in2="BackgroundImageFix" result="effect1_dropShadow_2900_2711"/>
<feBlend mode="normal" in="SourceGraphic" in2="effect1_dropShadow_2900_2711" result="shape"/>
</filter>
<linearGradient id="paint0_linear_2900_2711" x1="229.529" y1="173.268" x2="207.809" y2="56.8036" gradientUnits="userSpaceOnUse">
<stop stop-color="#F6F6F6"/>
<stop offset="0.875" stop-color="#FF9900"/>
</linearGradient>
</defs>
</svg>
