<svg width="609" height="306" viewBox="0 0 609 306" fill="none" xmlns="http://www.w3.org/2000/svg">
<g filter="url(#filter0_f_2900_2710)">
<path d="M529.703 56.2462C528.182 53.9413 525.081 53.3058 522.776 54.8267L485.216 79.6113C482.912 81.1322 482.276 84.2336 483.797 86.5384C485.318 88.8433 488.419 89.4788 490.724 87.9579L524.11 65.9271L546.141 99.3135C547.662 101.618 550.763 102.254 553.068 100.733C555.373 99.212 556.009 96.1106 554.488 93.8058L529.703 56.2462ZM56.0299 147.056C51.039 146.754 51.0388 146.759 51.0384 146.765C51.0383 146.767 51.038 146.773 51.0377 146.778C51.0371 146.787 51.0365 146.799 51.0358 146.812C51.0344 146.839 51.0326 146.873 51.0307 146.915C51.0268 146.998 51.0222 147.111 51.0177 147.253C51.0087 147.536 51.0004 147.934 51 148.438C50.9993 149.446 51.0307 150.88 51.154 152.672C51.4004 156.252 52.0148 161.277 53.4816 167.193C56.4168 179.03 62.7798 194.479 76.4551 208.978C103.942 238.121 159.62 262.115 271.653 248.053L270.407 238.131C159.94 251.996 108.117 227.973 83.7298 202.116C71.4676 189.115 65.7992 175.318 63.1876 164.786C61.881 159.516 61.343 155.075 61.1304 151.985C61.0242 150.442 60.9995 149.24 61 148.445C61.0003 148.048 61.0069 147.753 61.0127 147.569C61.0156 147.477 61.0183 147.413 61.02 147.378C61.0208 147.36 61.0213 147.349 61.0215 147.346C61.0216 147.344 61.0216 147.345 61.0215 147.347C61.0214 147.348 61.0213 147.351 61.0212 147.351C61.021 147.355 61.0208 147.358 56.0299 147.056ZM271.653 248.053C384.139 233.934 448.912 187.297 485.542 143.794C503.816 122.092 515.011 101.26 521.647 85.8106C524.966 78.0849 527.148 71.6991 528.506 67.2138C529.185 64.9709 529.659 63.2021 529.966 61.9774C530.12 61.3651 530.232 60.8886 530.307 60.5568C530.345 60.3909 530.373 60.2611 530.393 60.1685C530.403 60.1223 530.411 60.0853 530.417 60.0578C530.42 60.044 530.422 60.0326 530.424 60.0236C530.425 60.0191 530.426 60.0141 530.426 60.0119C530.427 60.0075 530.428 60.0037 525.53 59C520.632 57.9963 520.632 57.9937 520.633 57.9917C520.633 57.9918 520.633 57.9904 520.633 57.9906C520.633 57.9911 520.632 57.994 520.631 57.9991C520.629 58.0095 520.625 58.0291 520.618 58.058C520.606 58.1158 520.585 58.2105 520.556 58.3409C520.496 58.6017 520.402 59.0056 520.267 59.5438C519.996 60.6203 519.565 62.2339 518.935 64.3157C517.674 68.4798 515.617 74.5125 512.459 81.8636C506.143 96.5683 495.432 116.523 477.893 137.353C442.898 178.914 380.42 224.323 270.407 238.131L271.653 248.053Z" fill="url(#paint0_linear_2900_2710)"/>
</g>
<defs>
<filter id="filter0_f_2900_2710" x="-2.4" y="0.599388" width="611.115" height="304.988" filterUnits="userSpaceOnUse" color-interpolation-filters="sRGB">
<feFlood flood-opacity="0" result="BackgroundImageFix"/>
<feBlend mode="normal" in="SourceGraphic" in2="BackgroundImageFix" result="shape"/>
<feGaussianBlur stdDeviation="26.7" result="effect1_foregroundBlur_2900_2710"/>
</filter>
<linearGradient id="paint0_linear_2900_2710" x1="279.529" y1="230.268" x2="257.809" y2="113.804" gradientUnits="userSpaceOnUse">
<stop stop-color="#F6F6F6"/>
<stop offset="0.76" stop-color="#FF9900"/>
<stop offset="1" stop-color="#17171B"/>
</linearGradient>
</defs>
</svg>
