<svg width="1279" height="453" viewBox="0 0 1279 453" fill="none" xmlns="http://www.w3.org/2000/svg">
<path d="M-640 283.125C-640 283.125 -517.125 169.875 -394.25 169.875C-271.375 169.875 -148.5 283.125 -148.5 283.125C-148.5 283.125 -25.625 396.375 97.25 396.375C220.125 396.375 343 283.125 343 283.125C343 283.125 465.875 169.875 588.75 169.875C711.625 169.875 834.5 283.125 834.5 283.125C834.5 283.125 957.375 396.375 1080.25 396.375C1203.12 396.375 1326 283.125 1326 283.125" stroke="#222222" stroke-width="2.5"/>
<path d="M-640 169.875C-640 169.875 -517.125 56.625 -394.25 56.625C-271.375 56.625 -148.5 169.875 -148.5 169.875C-148.5 169.875 -25.625 283.125 97.25 283.125C220.125 283.125 343 169.875 343 169.875C343 169.875 465.875 56.625 588.75 56.625C711.625 56.625 834.5 169.875 834.5 169.875C834.5 169.875 957.375 283.125 1080.25 283.125C1203.12 283.125 1326 169.875 1326 169.875" stroke="#222222" stroke-width="2.5"/>
<path d="M-640 396.375C-640 396.375 -517.125 283.125 -394.25 283.125C-271.375 283.125 -148.5 396.375 -148.5 396.375C-148.5 396.375 -25.625 509.625 97.25 509.625C220.125 509.625 343 396.375 343 396.375C343 396.375 465.875 283.125 588.75 283.125C711.625 283.125 834.5 396.375 834.5 396.375C834.5 396.375 957.375 509.625 1080.25 509.625C1203.12 509.625 1326 396.375 1326 396.375" stroke="#222222" stroke-width="2.5"/>
<path d="M-640 56.625C-640 56.625 -517.125 -56.625 -394.25 -56.625C-271.375 -56.625 -148.5 56.625 -148.5 56.625C-148.5 56.625 -25.625 169.875 97.25 169.875C220.125 169.875 343 56.625 343 56.625C343 56.625 465.875 -56.625 588.75 -56.625C711.625 -56.625 834.5 56.625 834.5 56.625C834.5 56.625 957.375 169.875 1080.25 169.875C1203.12 169.875 1326 56.625 1326 56.625" stroke="#222222" stroke-width="2.5"/>
<path d="M-640 -56.625C-640 -56.625 -517.125 -169.875 -394.25 -169.875C-271.375 -169.875 -148.5 -56.625 -148.5 -56.625C-148.5 -56.625 -25.625 56.625 97.25 56.625C220.125 56.625 343 -56.625 343 -56.625C343 -56.625 465.875 -169.875 588.75 -169.875C711.625 -169.875 834.5 -56.625 834.5 -56.625C834.5 -56.625 957.375 56.625 1080.25 56.625C1203.12 56.625 1326 -56.625 1326 -56.625" stroke="#222222" stroke-width="2.5"/>
<path d="M-640 509.625C-640 509.625 -517.125 396.375 -394.25 396.375C-271.375 396.375 -148.5 509.625 -148.5 509.625C-148.5 509.625 -25.625 622.875 97.25 622.875C220.125 622.875 343 509.625 343 509.625C343 509.625 465.875 396.375 588.75 396.375C711.625 396.375 834.5 509.625 834.5 509.625C834.5 509.625 957.375 622.875 1080.25 622.875C1203.12 622.875 1326 509.625 1326 509.625" stroke="#222222" stroke-width="2.5"/>
</svg>
