<svg width="33" height="28" viewBox="0 0 33 28" fill="none" xmlns="http://www.w3.org/2000/svg">
<path d="M32.2522 3.94718C31.7338 4.17711 31.2008 4.37117 30.6562 4.52872C31.3009 3.79953 31.7925 2.94153 32.0926 2.00262C32.1599 1.79217 32.0902 1.56181 31.9172 1.42417C31.7444 1.28642 31.5044 1.26992 31.3141 1.38265C30.1575 2.06862 28.9097 2.5616 27.6013 2.84987C26.2833 1.56202 24.4933 0.829102 22.6427 0.829102C18.7365 0.829102 15.5585 4.007 15.5585 7.91314C15.5585 8.22078 15.5779 8.52672 15.6165 8.82841C10.7692 8.40281 6.26278 6.02032 3.16824 2.22436C3.05795 2.08906 2.88805 2.01614 2.71411 2.03009C2.54006 2.04371 2.38369 2.14186 2.29576 2.2927C1.66812 3.36968 1.33631 4.60143 1.33631 5.85468C1.33631 7.56163 1.94574 9.18119 3.02229 10.4467C2.69495 10.3333 2.3773 10.1916 2.07413 10.0233C1.91136 9.93274 1.71272 9.93412 1.55102 10.0268C1.38922 10.1196 1.28777 10.2901 1.28351 10.4765C1.28276 10.5079 1.28276 10.5393 1.28276 10.5711C1.28276 13.119 2.65407 15.413 4.75064 16.6632C4.57052 16.6453 4.39051 16.6192 4.21167 16.585C4.0273 16.5498 3.83771 16.6144 3.71337 16.755C3.58883 16.8955 3.54763 17.0914 3.60501 17.2702C4.38104 19.6931 6.37903 21.4752 8.79442 22.0185C6.7911 23.2733 4.50016 23.9305 2.0952 23.9305C1.59339 23.9305 1.0887 23.901 0.594768 23.8426C0.349397 23.8134 0.114777 23.9583 0.0312129 24.1916C-0.0523516 24.4251 0.0362161 24.6853 0.244968 24.8191C3.33451 26.8001 6.90692 27.8472 10.5758 27.8472C17.7883 27.8472 22.3002 24.446 24.8152 21.5928C27.9512 18.0351 29.7498 13.326 29.7498 8.67309C29.7498 8.47871 29.7469 8.28242 29.7409 8.08676C30.9782 7.15456 32.0434 6.02639 32.9103 4.7297C33.042 4.53277 33.0277 4.27249 32.8752 4.0912C32.7228 3.90981 32.4689 3.85116 32.2522 3.94718Z" fill="white"/>
</svg>
