<svg width="23" height="18" viewBox="0 0 23 18" fill="none" xmlns="http://www.w3.org/2000/svg">
<path d="M19.1037 2.27595C17.7012 1.64098 16.2016 1.17951 14.6337 0.916748C14.4412 1.2536 14.2162 1.70668 14.0611 2.0671C12.3945 1.82457 10.7432 1.82457 9.10716 2.0671C8.95209 1.70668 8.72203 1.2536 8.52776 0.916748C6.95823 1.17951 5.45686 1.64268 4.05434 2.27931C1.22544 6.41581 0.458573 10.4496 0.842008 14.426C2.71828 15.7818 4.53662 16.6055 6.32427 17.1444C6.76565 16.5566 7.1593 15.9317 7.49842 15.2732C6.85255 15.0357 6.23395 14.7427 5.64944 14.4025C5.80451 14.2913 5.95619 14.1751 6.10273 14.0555C9.66781 15.669 13.5414 15.669 17.0639 14.0555C17.2121 14.1751 17.3638 14.2913 17.5171 14.4025C16.9309 14.7443 16.3106 15.0374 15.6648 15.2749C16.0039 15.9317 16.3958 16.5583 16.8389 17.1461C18.6283 16.6071 20.4483 15.7835 22.3246 14.426C22.7745 9.81628 21.556 5.81958 19.1037 2.27595ZM7.98412 11.9805C6.91392 11.9805 6.03626 11.0138 6.03626 9.83649C6.03626 8.6592 6.89517 7.69077 7.98412 7.69077C9.07309 7.69077 9.95071 8.65751 9.93197 9.83649C9.93366 11.0138 9.07309 11.9805 7.98412 11.9805ZM15.1825 11.9805C14.1123 11.9805 13.2346 11.0138 13.2346 9.83649C13.2346 8.6592 14.0935 7.69077 15.1825 7.69077C16.2714 7.69077 17.1491 8.65751 17.1303 9.83649C17.1303 11.0138 16.2714 11.9805 15.1825 11.9805Z" fill="white"/>
</svg>
